<svg width="800" height="600" viewBox="0 0 800 600" fill="none" xmlns="http://www.w3.org/2000/svg">
<path fill-rule="evenodd" clip-rule="evenodd" d="M214.2 246.2L215 251.2C215.6 255.8 215.9 260.4 215.8 265.1C215.8 275.4 214.6 285.6 212.2 295.6C209 309.1 203.4 322 195.7 333.6C186.8 346.8 173.9 359.7 155.2 370.3L152.9 371.6L150.6 370.3C131.9 359.9 119 346.9 110.1 333.6C102.3 322 96.8 309.2 93.6 295.6C91.2 285.6 90 275.4 90 265.1C90 260.5 90.2 255.8 90.8 251.2L91.5 246.2C91.6 245.8 91.6 245.4 91.5 245C91.4 244.6 91.3 244.2 91 243.9C90.8 243.6 90.5 243.3 90.2 243.1C89.9 242.9 89.5 242.8 89.2 242.7C88.8 242.6 88.4 242.6 88 242.7C87.6 242.8 87.2 243 86.9 243.2C86.6 243.4 86.3 243.7 86.1 244C85.9 244.4 85.8 244.8 85.7 245.2L84.9 250.2C84.3 255.1 84 260.1 84 265.1C84 275.9 85.3 286.6 87.8 297.1C89.5 304.2 91.8 311.2 94.7 317.9C97.6 324.6 101.1 331 105.2 337.1C114.6 351.1 128.2 364.8 147.8 375.6L151.5 377.7C152 377.9 152.5 378 153 378C153.5 378 154 377.9 154.5 377.7L158.2 375.6C177.7 364.7 191.4 351 200.8 337.1C209 324.9 214.9 311.3 218.2 297.1C220.7 286.6 221.9 275.9 221.9 265.1C221.9 260.1 221.6 255.1 221 250.1L220.2 245.1C220.1 244.7 220 244.3 219.8 243.9C219.6 243.6 219.3 243.3 219 243.1C218.7 242.9 218.3 242.7 217.9 242.6C217.5 242.5 217.1 242.5 216.7 242.6C216.3 242.7 215.9 242.8 215.5 243C215.2 243.2 214.9 243.5 214.7 243.8C214.5 244.1 214.3 244.5 214.2 244.9V246.2Z" fill="white"/>
<path fill-rule="evenodd" clip-rule="evenodd" d="M108.3 242.8L153.1 228.7L198.8 243.1C199.2 243.2 199.6 243.2 200 243.2C200.4 243.2 200.8 243.1 201.2 242.9C201.6 242.7 201.9 242.5 202.2 242.1C202.5 241.8 202.7 241.4 202.7 241C202.8 240.6 202.8 240.2 202.8 239.8C202.8 239.4 202.7 239 202.5 238.6C202.3 238.2 202.1 237.9 201.8 237.6C201.5 237.3 201.1 237.1 200.7 237.1L154 222.3C153.4 222.1 152.8 222.1 152.2 222.3L106.6 236.7C106.2 236.8 105.9 237 105.5 237.2C105.2 237.5 104.9 237.8 104.8 238.2C104.6 238.6 104.5 239 104.5 239.4C104.5 239.8 104.5 240.2 104.6 240.6C104.7 241 104.9 241.4 105.1 241.7C105.3 242 105.7 242.3 106.1 242.5C106.4 242.7 106.8 242.8 107.3 242.8C107.5 242.9 107.9 242.9 108.3 242.8Z" fill="white"/>
<path fill-rule="evenodd" clip-rule="evenodd" d="M86.2 247.1L150.3 376.3C150.5 376.8 150.9 377.2 151.3 377.5C152.3 378.1 153.5 378.1 154.5 377.5C155 377.2 155.4 376.8 155.7 376.3L194.8 300.8L194.9 300.7L219.9 247C220.1 246.6 220.2 246.2 220.2 245.8C220.2 245.4 220.2 245 220 244.6C219.9 244.2 219.7 243.8 219.4 243.5C219.2 243.2 218.8 242.9 218.5 242.7C218.2 242.5 217.8 242.4 217.3 242.4C216.9 242.4 216.5 242.4 216.1 242.5C215.7 242.6 215.3 242.8 215 243.1C214.7 243.4 214.4 243.7 214.3 244.1L189.3 297.8L152.9 368.1L91.5 244.1C91.3 243.8 91 243.4 90.8 243.1C90.5 242.8 90.1 242.6 89.7 242.5C89.3 242.3 88.9 242.3 88.5 242.4C88.1 242.4 87.7 242.5 87.3 242.7C87 242.9 86.6 243.2 86.4 243.5C86.2 243.8 86 244.2 85.9 244.6C85.8 245 85.7 245.4 85.8 245.8C85.9 246.3 86 246.7 86.2 247.1Z" fill="white"/>
<path fill-rule="evenodd" clip-rule="evenodd" d="M116.9 304.7H188.3C188.7 304.7 189.1 304.6 189.5 304.5C189.9 304.4 190.2 304.1 190.4 303.8C190.7 303.5 190.9 303.2 191 302.8C191.3 302 191.3 301.2 191 300.4C190.9 300 190.6 299.7 190.4 299.4C190.1 299.1 189.8 298.9 189.5 298.7C189.1 298.6 188.7 298.5 188.3 298.5H116.9C116.5 298.5 116.1 298.6 115.7 298.7C115.3 298.8 115 299.1 114.8 299.4C114.5 299.7 114.3 300 114.2 300.4C113.9 301.2 113.9 302 114.2 302.8C114.3 303.2 114.5 303.5 114.8 303.8C115.1 304.1 115.4 304.3 115.7 304.5C116.1 304.6 116.5 304.6 116.9 304.7ZM315.9 277.8H269.5C269.1 277.8 268.7 277.9 268.3 278C267.9 278.1 267.6 278.4 267.4 278.7C267.1 279 266.9 279.3 266.8 279.7C266.7 280.1 266.6 280.5 266.6 280.9V319.4C266.6 319.8 266.7 320.2 266.8 320.6C266.9 321 267.1 321.3 267.4 321.6C267.7 321.9 268 322.1 268.3 322.3C268.7 322.4 269.1 322.5 269.5 322.5H315.9V329H269.5C268.9 329 268.3 328.9 267.7 328.8C267.1 328.7 266.5 328.5 265.9 328.3C265.3 328.1 264.8 327.8 264.3 327.5C263.8 327.1 263.4 326.7 262.9 326.3C262 325.4 261.4 324.4 260.9 323.3C260.7 322.7 260.5 322.1 260.4 321.5C260.3 320.9 260.2 320.3 260.2 319.7V281C260.2 280.4 260.3 279.8 260.4 279.2C260.5 278.6 260.7 278 260.9 277.4C261.1 276.8 261.4 276.2 261.7 275.7C262 275.2 262.4 274.7 262.9 274.3C263.3 273.9 263.8 273.5 264.3 273.1C264.8 272.8 265.3 272.5 265.9 272.3C266.5 272.1 267.1 271.9 267.7 271.8C268.3 271.7 268.9 271.6 269.5 271.6H315.9V277.8ZM403 271.3V277.8H358.3V296.9H394.2V303.5H358.3V322.6H403V329.1H352.1V271.3H403Z" fill="white"/>
<path d="M495.1 281.1V298C495.1 298.6 495 299.2 494.9 299.8C494.8 300.4 494.6 301 494.4 301.6C494.2 302.2 493.9 302.8 493.6 303.3C493.2 303.8 492.9 304.3 492.4 304.7C492 305.1 491.5 305.5 491 305.9C490.5 306.2 490 306.5 489.4 306.7C488.8 306.9 488.2 307.1 487.6 307.3C487 307.4 486.4 307.5 485.8 307.5H477.3L494.8 329H486.4L469 307.5H448.6C447.6 307.5 446.6 307.4 445.6 307.2V329H439.3V271.4H485.9C486.5 271.4 487.1 271.5 487.7 271.6C488.3 271.7 488.9 271.9 489.5 272.1C490.1 272.3 490.6 272.6 491.1 273C492.1 273.7 492.9 274.6 493.6 275.6C493.9 276.1 494.2 276.7 494.4 277.3C494.6 277.9 494.8 278.5 494.9 279.1C495 279.8 495.1 280.5 495.1 281.1ZM448.5 301.1H485.8C486.2 301.1 486.6 301 487 300.9C487.4 300.8 487.7 300.6 487.9 300.2C488.2 299.9 488.4 299.6 488.5 299.2C488.6 298.8 488.7 298.4 488.7 298V281.1C488.7 280.3 488.4 279.5 487.9 278.9C487.4 278.3 486.6 277.9 485.8 277.9H448.5C448.1 277.9 447.7 278 447.3 278.1C446.9 278.2 446.6 278.5 446.4 278.8C446.1 279.1 445.9 279.4 445.8 279.8C445.7 280.2 445.6 280.6 445.6 281V297.9C445.6 298.7 445.9 299.5 446.6 300.1C447 300.7 447.8 301.1 448.5 301.1Z" fill="white"/>
<path fill-rule="evenodd" clip-rule="evenodd" d="M528.5 271.3H584.3V277.8H559.6V329H553.3V277.8H528.5V271.3ZM618.3 329.1V271.4H624.6V329.1H618.3ZM708.5 271.3H716.6L693.3 300.2L716.7 329.1H708.5L687.7 303.5H669.7V329.1H663.4V271.4H669.8V297H687.8L708.5 271.3Z" fill="white"/>
</svg>
